<svg xmlns="http://www.w3.org/2000/svg" version="1.1" xmlns:xlink="http://www.w3.org/1999/xlink" xmlns:svgjs="http://svgjs.dev/svgjs" width="1000" height="750" viewBox="0 0 1000 750"><rect width="1000" height="750" fill="#915eff"></rect><g transform="matrix(0.834,0,0,0.834,82.49454545454546,115.4193570850203)"><svg viewBox="0 0 396 247" data-background-color="#915eff" preserveAspectRatio="xMidYMid meet" height="623" width="1000" xmlns="http://www.w3.org/2000/svg" xmlns:xlink="http://www.w3.org/1999/xlink"><g id="tight-bounds" transform="matrix(1,0,0,1,0.2400000000000091,-0.09999999999999432)"><svg viewBox="0 0 395.52 247.2" height="247.2" width="395.52"><g><svg viewBox="0 0 395.52 247.2" height="247.2" width="395.52"><g transform="matrix(1,0,0,1,80.37656804733727,0)"><svg viewBox="0 0 234.76686390532544 247.2" height="247.2" width="234.76686390532544"><g><svg viewBox="0 0 234.76686390532544 247.2" height="247.2" width="234.76686390532544"><g><svg viewBox="0 0 234.76686390532544 247.2" height="247.2" width="234.76686390532544"><g><svg viewBox="0 0 234.76686390532544 247.2" height="247.2" width="234.76686390532544"><g id="textblocktransform"><svg viewBox="0 0 234.76686390532544 247.2" height="247.2" width="234.76686390532544" id="textblock"><g><svg viewBox="0 0 234.76686390532544 247.2" height="247.2" width="234.76686390532544"><g transform="matrix(1,0,0,1,0,0)"><svg width="234.76686390532544" viewBox="0.45 -33.15 32.099999999999994 33.8" height="247.2" data-palette-color="#ffffff"><path d="M31.7-31.75Q32.55-30.05 32.55-29.15L32.55-29.15Q32.55-28.65 32.35-28.45L32.35-28.45Q32.05-28.1 30.7-27.45 29.35-26.8 28.9-26.6L28.9-26.6Q27.45-25.95 24.58-23.68 21.7-21.4 19.18-18.98 16.65-16.55 16.15-15.6L16.15-15.6Q16.6-14.05 18.55-11.38 20.5-8.7 22.53-6.55 24.55-4.4 25.15-4.4L25.15-4.4 25.65-4.35Q26.25-4.25 27.05-3.25 27.85-2.25 27.85-1.4L27.85-1.4Q27.85-0.7 27-0.55L27-0.55Q26.45-0.45 25.4-0.05L25.4-0.05Q24.45 0.3 23.55 0.3L23.55 0.3Q22.5 0.3 21.95 0.05L21.95 0.05Q20.4-0.6 17.88-3.13 15.35-5.65 13.2-8.8 11.05-11.95 10.4-14.35L10.4-14.35 7.25-1.8Q6.9-0.35 6.18 0.15 5.45 0.65 3.45 0.65L3.45 0.65Q1.9 0.65 1.18 0.13 0.45-0.4 0.45-1.65L0.45-1.65Q0.45-2.2 0.6-2.7L0.6-2.7 6.65-26 6.5-31.3Q6.7-32.15 7.78-32.65 8.85-33.15 9.75-33.15L9.75-33.15Q11.1-33.15 12.43-32.08 13.75-31 13.8-29.45L13.8-29.45Q13.8-28.35 11.3-18.05L11.3-18.05Q13.05-20.45 16.53-23.85 20-27.25 23.5-29.9 27-32.55 29-32.9L29-32.9Q29.5-32.9 30.45-32.68 31.4-32.45 31.7-31.75L31.7-31.75Z" opacity="1" transform="matrix(1,0,0,1,0,0)" fill="#ffffff" class="wordmark-text-0" data-fill-palette-color="primary" id="text-0"></path></svg></g></svg></g></svg></g></svg></g><g></g></svg></g></svg></g></svg></g></svg></g><defs></defs></svg><rect width="395.52" height="247.2" fill="none" stroke="none" visibility="hidden"></rect></g></svg></g></svg>